<?xml version="1.0" encoding="UTF-8"?>
<svg version="1.1" xmlns="http://www.w3.org/2000/svg" width="305" height="305">
<path d="M0 0 C2.30859375 1.6875 2.30859375 1.6875 4.4375 4 C5.21480469 4.83015625 5.99210937 5.6603125 6.79296875 6.515625 C9.18787595 9.21148514 11.55012333 11.93209187 13.89453125 14.671875 C18.70527265 19.991359 23.89546057 24.96454457 29 30 C33.09892237 28.38970907 35.76205641 25.42183917 38.75 22.3125 C42.71735614 18.258544 46.71035462 14.36572153 51.08203125 10.7421875 C53.12390415 8.95997536 53.12390415 8.95997536 55.13671875 6.5078125 C55.87535156 5.65960937 56.61398438 4.81140625 57.375 3.9375 C58.02210938 3.14214844 58.66921875 2.34679687 59.3359375 1.52734375 C66.32432509 -2.47919518 80.60475452 4.21055672 88.15167046 6.25700951 C94.64528114 8.02516844 101.1357961 9.80432473 107.6237793 11.59301758 C111.50820132 12.66216356 115.39644529 13.71530834 119.28881836 14.75512695 C124.00830872 16.01608676 128.71939636 17.30472501 133.42582893 18.61355019 C135.21531379 19.10613705 137.00753663 19.58888836 138.80239677 20.0615139 C141.30673053 20.72306484 143.79865545 21.41975743 146.29077148 22.12573242 C147.40116791 22.40586937 147.40116791 22.40586937 148.53399658 22.69166565 C152.37465197 23.82333738 153.80437095 24.663639 155.84104919 28.16546631 C156.26275454 29.43240913 156.6482324 30.71188546 157 32 C157.1911523 32.63602803 157.38230459 33.27205606 157.57924938 33.92735767 C158.18102717 36.01779389 158.72223325 38.11711704 159.25244141 40.22680664 C159.45609818 41.01798386 159.65975494 41.80916107 159.86958313 42.62431335 C160.53575735 45.21821792 161.19380945 47.81410468 161.8515625 50.41015625 C162.31528119 52.22434629 162.77942985 54.03842648 163.24398804 55.85240173 C164.21400474 59.64494195 165.18025356 63.4384146 166.14355469 67.23266602 C167.37645108 72.08838575 168.61651544 76.94223773 169.85912514 81.79547977 C170.81688525 85.53791332 171.77196025 89.28102771 172.72611618 93.02438164 C173.18245407 94.81423777 173.63936004 96.60394916 174.09685135 98.39351082 C174.73590482 100.89589504 175.37161056 103.39910582 176.00634766 105.90258789 C176.19440475 106.63677948 176.38246185 107.37097107 176.57621765 108.12741089 C177.06931788 110.08036104 177.53564907 112.04001522 178 114 C178.26247025 115.08426773 178.52494049 116.16853546 178.79536438 117.28565979 C179 120 179 120 177.94337463 121.89840698 C177.39044235 122.43579498 176.83751007 122.97318298 176.26782227 123.52685547 C175.64710342 124.14704559 175.02638458 124.76723572 174.38685608 125.40621948 C173.70360764 126.05333893 173.02035919 126.70045837 172.31640625 127.3671875 C171.62691391 128.04677521 170.93742157 128.72636292 170.22703552 129.42654419 C168.02140213 131.59299813 165.79269119 133.73386283 163.5625 135.875 C162.06286755 137.339524 160.56479975 138.80565201 159.06835938 140.2734375 C155.39680196 143.86782157 151.70435813 147.43944214 148 151 C151.20454031 154.76899571 154.41296366 158.51791001 157.8046875 162.12109375 C158.47113281 162.82943359 159.13757813 163.53777344 159.82421875 164.26757812 C160.50097656 164.98365234 161.17773438 165.69972656 161.875 166.4375 C162.54402344 167.14970703 163.21304687 167.86191406 163.90234375 168.59570312 C164.57136719 169.30533203 165.24039062 170.01496094 165.9296875 170.74609375 C166.5906543 171.45491699 167.25162109 172.16374023 167.93261719 172.89404297 C169.98528001 175.04402983 169.98528001 175.04402983 172.32519531 177.00048828 C173.06608398 177.65130371 173.80697266 178.30211914 174.5703125 178.97265625 C175.5914917 179.81389038 175.5914917 179.81389038 176.63330078 180.67211914 C179.30853373 185.22880834 177.24353185 191.33136098 176.01330566 196.25779724 C175.61278692 197.74072468 175.20502167 199.221709 174.79101562 200.70092773 C174.56814377 201.51832932 174.34527191 202.3357309 174.11564636 203.17790222 C173.38573661 205.84831371 172.64617794 208.51594248 171.90625 211.18359375 C171.39387359 213.04909309 170.88204129 214.91474195 170.37072754 216.78053284 C169.30223425 220.67409636 168.22932941 224.56640566 167.15283203 228.45776367 C165.77131379 233.45193319 164.39763318 238.44821445 163.02680206 243.44532681 C161.71852424 248.21300372 160.40623867 252.97957467 159.09375 257.74609375 C158.84325394 258.65724882 158.59275787 259.56840389 158.33467102 260.50716972 C157.62833517 263.07367898 156.91913565 265.63937821 156.20898438 268.20483398 C155.89413338 269.3510321 155.89413338 269.3510321 155.57292175 270.52038574 C154.11475625 275.7704875 154.11475625 275.7704875 153 278 C150.45297241 278.88348389 150.45297241 278.88348389 147.00927734 279.78417969 C146.38283325 279.95039825 145.75638916 280.11661682 145.11096191 280.28787231 C143.02123792 280.84027096 140.92868297 281.38104598 138.8359375 281.921875 C137.36770521 282.30750659 135.8996599 282.6938507 134.43179321 283.08087158 C130.53963443 284.10500222 126.64498583 285.11933678 122.74975586 286.13171387 C118.87982027 287.13928166 115.01226321 288.15588743 111.14453125 289.171875 C106.6350592 290.35595753 102.12506599 291.53788646 97.61248779 292.71008301 C90.99931455 294.42800377 84.3907521 296.1564957 77.79785156 297.95117188 C76.72717438 298.23986145 75.65649719 298.52855103 74.55337524 298.82598877 C72.60964525 299.35129354 70.66787071 299.88391505 68.72860718 300.42547607 C67.88698029 300.65148499 67.04535339 300.8774939 66.17822266 301.11035156 C65.4607486 301.30808167 64.74327454 301.50581177 64.00405884 301.70953369 C61.69349585 302.04442441 60.19557858 301.76198872 58 301 C56.32421875 299.65234375 56.32421875 299.65234375 54.6875 297.9375 C54.07261719 297.29683594 53.45773438 296.65617187 52.82421875 295.99609375 C51.17664867 294.19329223 49.58283156 292.35952191 48 290.5 C42.08839896 283.61906022 35.45059056 277.36972491 29 271 C24.59272397 272.64972173 21.90311303 276.00452738 18.765625 279.35546875 C17.54013843 280.63059222 16.31354103 281.90464885 15.0859375 283.17773438 C13.1615389 285.18252111 11.24497613 287.19287121 9.34667969 289.22241211 C7.50685829 291.18347497 5.6395379 293.11453123 3.765625 295.04296875 C3.20699768 295.65432175 2.64837036 296.26567474 2.07281494 296.89555359 C1.5257489 297.44975479 0.97868286 298.00395599 0.41503906 298.57495117 C-0.05254822 299.06855637 -0.5201355 299.56216156 -1.00189209 300.07072449 C-6.19136026 302.48423062 -13.75953296 299.40452382 -19.04907227 297.89868164 C-19.8095285 297.68716965 -20.56998474 297.47565765 -21.35348511 297.25773621 C-23.84267351 296.563952 -26.32951735 295.86213399 -28.81640625 295.16015625 C-30.55926457 294.67263806 -32.30226321 294.18562126 -34.0453949 293.69908142 C-38.61925808 292.42096351 -43.1911642 291.13597871 -47.76269531 289.84954834 C-52.40506152 288.54454066 -57.04930025 287.24623316 -61.69335938 285.94726562 C-68.48998414 284.0451975 -75.28588031 282.14056462 -82.08032227 280.23071289 C-82.78129532 280.03375824 -83.48226837 279.83680359 -84.20448303 279.63388062 C-86.13665378 279.0904319 -88.0683372 278.54525144 -90 278 C-91.25840698 277.79710861 -92.51681396 277.59421722 -93.81335449 277.38517761 C-97 276 -97 276 -97.98219967 274.40352726 C-98.79670496 272.15769676 -99.37005274 269.93469285 -99.90600586 267.60644531 C-100.13136017 266.73796967 -100.35671448 265.86949402 -100.58889771 264.97470093 C-101.32707302 262.09909857 -102.021137 259.21474872 -102.71484375 256.328125 C-103.21805035 254.32691623 -103.72374651 252.32633195 -104.23182678 250.32635498 C-105.29122994 246.1307646 -106.33079173 241.93094533 -107.35473633 237.7265625 C-108.66618101 232.34199905 -110.00975292 226.96617631 -111.36620235 221.59279251 C-112.65948274 216.46548896 -113.93833068 211.3346247 -115.21484375 206.203125 C-115.58094914 204.73681515 -115.58094914 204.73681515 -115.95445061 203.24088287 C-116.64406757 200.46615602 -117.32359827 197.68916617 -117.99975586 194.91113281 C-118.20382553 194.09428009 -118.4078952 193.27742737 -118.6181488 192.43582153 C-119.63363555 188.21334379 -120.33674938 184.37860614 -120 180 C-118.86108398 178.27172852 -118.86108398 178.27172852 -117.24609375 176.87890625 C-116.64547119 176.34281738 -116.04484863 175.80672852 -115.42602539 175.25439453 C-114.76981201 174.69606934 -114.11359863 174.13774414 -113.4375 173.5625 C-112.06788436 172.34517435 -110.70077673 171.12502222 -109.3359375 169.90234375 C-108.27004395 168.95464111 -108.27004395 168.95464111 -107.18261719 167.98779297 C-103.52230119 164.65420316 -100.04437489 161.14310492 -96.5625 157.625 C-95.90628662 156.96443604 -95.25007324 156.30387207 -94.57397461 155.62329102 C-93.04702632 154.08446304 -91.5231466 152.54259102 -90 151 C-91.62084653 147.55598213 -93.42536245 145.39328482 -96.1875 142.75 C-99.64519755 139.37462859 -102.85807328 135.92934914 -105.953125 132.22265625 C-107.63274277 130.39879649 -109.31141868 128.81067704 -111.171875 127.18359375 C-112.00851685 126.42622925 -112.00851685 126.42622925 -112.86206055 125.65356445 C-113.97273697 124.65515166 -115.10672572 123.68192393 -116.26489258 122.73901367 C-117.81640625 121.3203125 -117.81640625 121.3203125 -120 118 C-119.94836426 116.16487122 -119.94836426 116.16487122 -119.44335938 113.99536133 C-119.23900772 113.10500183 -119.03465607 112.21464233 -118.82411194 111.29730225 C-118.552155 110.2091925 -118.28019806 109.12108276 -118 108 C-117.75888898 107.02274586 -117.75888898 107.02274586 -117.51290703 106.02574921 C-114.90268786 95.47750939 -112.10796219 84.97591959 -109.30556393 74.47740269 C-107.98059771 69.51217138 -106.67091751 64.54395017 -105.39575195 59.56567383 C-104.15606647 54.72731534 -102.87950144 49.90013312 -101.5762043 45.07853508 C-101.08745017 43.24519151 -100.61188809 41.40827737 -100.14994621 39.56799507 C-99.50233676 36.99864804 -98.80808219 34.44642938 -98.10131836 31.89282227 C-97.92175095 31.13385651 -97.74218353 30.37489075 -97.55717468 29.59292603 C-96.69572067 26.63751655 -95.84327451 24.47352958 -93.09159565 22.92836094 C-90.74433303 22.12140304 -88.42302949 21.53477733 -86 21 C-84.63881737 20.6193487 -83.27906409 20.23353944 -81.92097473 19.84199524 C-80.52467483 19.46896299 -79.1275579 19.09897863 -77.72973633 18.73168945 C-76.9577742 18.52642639 -76.18581207 18.32116333 -75.39045715 18.10968018 C-72.87181217 17.44103125 -70.35202891 16.77681269 -67.83203125 16.11328125 C-66.06563666 15.64678821 -64.29925401 15.18024998 -62.53288269 14.71366882 C-58.8461462 13.74075182 -55.15874244 12.77040951 -51.47094727 11.80151367 C-46.75158779 10.56106393 -42.03481619 9.31105646 -37.31859303 8.05874348 C-33.67817455 7.09379086 -30.0360307 6.13548419 -26.3933773 5.17900658 C-24.65326158 4.72092254 -22.91378113 4.26041803 -21.17496681 3.79741859 C-18.74578302 3.15132007 -16.31431917 2.51461161 -13.88208008 1.88012695 C-13.16973206 1.68847458 -12.45738403 1.4968222 -11.72344971 1.29936218 C-7.73236236 0.27013161 -4.1206965 -0.34650756 0 0 Z M-16.47143555 31.1015625 C-17.37214279 31.34181152 -18.27285004 31.58206055 -19.20085144 31.82958984 C-20.16968765 32.0920752 -21.13852386 32.35456055 -22.13671875 32.625 C-23.13129593 32.89135254 -24.12587311 33.15770508 -25.15058899 33.43212891 C-28.33050981 34.28458983 -31.50900721 35.14223151 -34.6875 36 C-36.84170521 36.57846646 -38.99600101 37.15659571 -41.15039062 37.734375 C-46.43465149 39.15233715 -51.71775261 40.57455663 -57 42 C-56.06314357 43.10476534 -55.1245718 44.20807616 -54.18530273 45.31079102 C-53.40158546 46.23263939 -53.40158546 46.23263939 -52.60203552 47.17311096 C-50.21609699 49.89392763 -47.65182759 52.41223129 -45.0625 54.9375 C-41.17188053 58.77580062 -37.47371236 62.67682735 -33.93359375 66.84375 C-29.51419659 71.77204744 -24.7139877 76.35567714 -20 81 C-13.25919575 75.47349666 -7.1928871 69.30550441 -1.0625 63.125 C0.01343727 62.04403726 1.08960731 60.96330617 2.16601562 59.8828125 C4.78003292 57.25787359 7.39088596 54.62981372 10 52 C8.61950251 48.88317581 7.03207315 46.80407751 4.59375 44.43359375 C3.93246094 43.78326172 3.27117187 43.13292969 2.58984375 42.46289062 C1.90019531 41.79451172 1.21054688 41.12613281 0.5 40.4375 C-0.86682728 39.10516275 -2.2315031 37.77061385 -3.59375 36.43359375 C-4.19896484 35.84634521 -4.80417969 35.25909668 -5.42773438 34.65405273 C-7 33 -7 33 -9 30 C-11.81899277 30 -13.7742213 30.37626119 -16.47143555 31.1015625 Z M64.13671875 35.375 C63.25048828 36.27734375 62.36425781 37.1796875 61.45117188 38.109375 C60.53916016 39.06328125 59.62714844 40.0171875 58.6875 41 C57.74791008 41.96467802 56.80716653 42.92823385 55.86523438 43.890625 C53.56522271 46.24961133 51.27765966 48.61945787 49 51 C54.52650334 57.74080425 60.69449559 63.8071129 66.875 69.9375 C67.95596274 71.01343727 69.03669383 72.08960731 70.1171875 73.16601562 C72.74212641 75.78003292 75.37018628 78.39088596 78 81 C81.75310882 79.44234073 84.09417913 77.1220056 86.921875 74.23828125 C87.38555481 73.76939987 87.84923462 73.30051849 88.32696533 72.81742859 C89.80617025 71.32048402 91.27852701 69.81704251 92.75 68.3125 C104.31463552 56.52650412 104.31463552 56.52650412 110.35253906 51.46923828 C112.88590564 49.20993181 114.91440805 46.67216469 117 44 C111.63099132 41.92712392 106.26890112 40.10591228 100.73828125 38.51953125 C99.98459763 38.30181564 99.230914 38.08410004 98.45439148 37.85978699 C96.87593181 37.40521131 95.29697055 36.952374 93.7175293 36.5012207 C91.30629807 35.81072397 88.89828934 35.10968533 86.49023438 34.40820312 C84.94810197 33.96549981 83.40579027 33.52342054 81.86328125 33.08203125 C81.14860184 32.87270462 80.43392242 32.66337799 79.69758606 32.44770813 C72.48123163 30.40940328 69.51431741 29.82393042 64.13671875 35.375 Z M-77 62 C-78.55760383 67.38676109 -80.10549832 72.77618623 -81.64477539 78.16821289 C-82.16886021 79.99903955 -82.69550988 81.82913415 -83.22485352 83.65844727 C-83.98883004 86.30032274 -84.74329485 88.94476449 -85.49609375 91.58984375 C-85.73154404 92.39646957 -85.96699432 93.2030954 -86.20957947 94.03416443 C-89.15773503 103.21645838 -89.15773503 103.21645838 -87.90771484 112.31933594 C-87.06781006 113.14353027 -87.06781006 113.14353027 -86.2109375 113.984375 C-85.59863281 114.60957031 -84.98632812 115.23476562 -84.35546875 115.87890625 C-83.70191406 116.49636719 -83.04835938 117.11382812 -82.375 117.75 C-81.74464844 118.38292969 -81.11429688 119.01585937 -80.46484375 119.66796875 C-78.6643304 121.4684821 -76.8356237 123.23541277 -75 125 C-73.32652195 126.66000733 -71.66357344 128.33005272 -70 130 C-65.70932454 128.34763349 -62.8570447 125.1094793 -59.703125 121.8984375 C-59.10949158 121.30197418 -58.51585815 120.70551086 -57.90423584 120.0909729 C-56.01473373 118.1903019 -54.13231608 116.28278526 -52.25 114.375 C-50.96790935 113.08287532 -49.68536239 111.79120324 -48.40234375 110.5 C-45.26291568 107.33855521 -42.12982199 104.1709539 -39 101 C-39.95089561 99.88187251 -40.90304306 98.76480956 -41.85571289 97.64819336 C-42.3858046 97.02601425 -42.9158963 96.40383514 -43.46205139 95.76280212 C-45.35759156 93.5901273 -47.36894529 91.5703265 -49.4375 89.5625 C-52.12086316 86.91461933 -54.69429132 84.25560848 -57.125 81.375 C-60.83480263 77.04689693 -64.85211684 73.03418075 -68.875 69 C-69.55449707 68.31599121 -70.23399414 67.63198242 -70.93408203 66.92724609 C-71.57200684 66.29125488 -72.20993164 65.65526367 -72.8671875 65 C-73.44581543 64.4225 -74.02444336 63.845 -74.62060547 63.25 C-75.81324912 61.88808385 -75.81324912 61.88808385 -77 62 Z M134.43711853 64.44262695 C133.76427322 65.11769287 133.09142792 65.79275879 132.39819336 66.48828125 C131.63748032 67.24906982 130.87676727 68.0098584 130.09300232 68.79370117 C129.26695999 69.62490479 128.44091766 70.4561084 127.58984375 71.3125 C126.74780899 72.15594971 125.90577423 72.99939941 125.03822327 73.8684082 C122.33563894 76.57661323 119.63654258 79.28826562 116.9375 82 C115.11155594 83.83095639 113.28538708 85.66168862 111.45898438 87.4921875 C106.97003947 91.99218886 102.48395739 96.49502919 98 101 C101.24665537 104.84830236 104.49817662 108.62559168 108.09375 112.15625 C109.17462891 113.22552734 109.17462891 113.22552734 110.27734375 114.31640625 C111.01082031 115.03699219 111.74429688 115.75757813 112.5 116.5 C117.58117 121.49187 122.44379447 126.52101866 127 132 C128.47714478 130.71041382 128.47714478 130.71041382 129.98413086 129.39477539 C132.61768327 127.11799391 135.31568613 125.0385755 138.14282227 123.00952148 C142.57370501 119.57829011 146.58677912 116.15186734 149 111 C149.90849203 102.48930986 146.51954079 94.04254782 143.9375 86.0625 C143.2828966 83.8207142 142.63632619 81.57656621 141.99804688 79.33007812 C140.42387636 73.85597816 138.75214602 68.41958927 137 63 C135.76798255 62.88695471 135.76798255 62.88695471 134.43711853 64.44262695 Z M26.22436523 73.66210938 C24.99987335 74.88676057 23.77815292 76.11418652 22.55859375 77.34375 C21.91632339 77.9874353 21.27405304 78.63112061 20.61231995 79.29431152 C18.55169988 81.36055079 16.49457475 83.43023169 14.4375 85.5 C13.04514988 86.89736264 11.65257475 88.29450111 10.25976562 89.69140625 C6.83722262 93.12500373 3.41781118 96.56169268 0 100 C1.92860465 104.21676405 4.82970138 107.08321791 8.1015625 110.296875 C8.69802582 110.89050842 9.29448914 111.48414185 9.9090271 112.09576416 C11.8096981 113.98526627 13.71721474 115.86768392 15.625 117.75 C16.91712468 119.03209065 18.20879676 120.31463761 19.5 121.59765625 C22.66144479 124.73708432 25.8290461 127.87017801 29 131 C33.4266071 127.28984473 37.64214876 123.47851707 41.71484375 119.3828125 C42.46575035 118.62978348 42.46575035 118.62978348 43.23182678 117.86154175 C44.80278598 116.28506329 46.37019877 114.70511427 47.9375 113.125 C49.01343727 112.04403726 50.08960731 110.96330617 51.16601562 109.8828125 C53.78003292 107.25787359 56.39088596 104.62981372 59 102 C57.34632885 97.72113402 54.13020426 94.8599365 50.93359375 91.703125 C50.33950211 91.10949158 49.74541046 90.51585815 49.13331604 89.90423584 C47.88071283 88.65464684 46.62568693 87.40748226 45.3684082 86.16259766 C43.43574928 84.24826588 41.51128287 82.32598142 39.58789062 80.40234375 C38.37026394 79.1896298 37.15218082 77.97737392 35.93359375 76.765625 C35.3544371 76.18758118 34.77528046 75.60953735 34.17857361 75.01397705 C30.39930997 70.4232719 30.39930997 70.4232719 26.22436523 73.66210938 Z M-20 120 C-29.57 129.57 -39.14 139.14 -49 149 C-44.66163448 157.67673105 -36.88882302 164.24116154 -30.0625 171 C-29.18787109 171.87011719 -28.31324219 172.74023438 -27.41210938 173.63671875 C-25.27702551 175.76013549 -23.13962795 177.88116378 -21 180 C-16.70932454 178.34763349 -13.8570447 175.1094793 -10.703125 171.8984375 C-9.81267487 171.00374252 -9.81267487 171.00374252 -8.90423584 170.0909729 C-7.01473373 168.1903019 -5.13231608 166.28278526 -3.25 164.375 C-1.96790935 163.08287532 -0.68536239 161.79120324 0.59765625 160.5 C3.73708432 157.33855521 6.87017801 154.1709539 10 151 C6.52951647 146.87577206 3.00696024 142.88364144 -0.8203125 139.08203125 C-1.68527344 138.22029297 -2.55023438 137.35855469 -3.44140625 136.47070312 C-4.32699219 135.59349609 -5.21257812 134.71628906 -6.125 133.8125 C-7.01832031 132.92369141 -7.91164062 132.03488281 -8.83203125 131.11914062 C-10.48858968 129.4712488 -12.14617941 127.82439251 -13.80517578 126.17895508 C-15.87494293 124.12415288 -17.93770175 122.06229825 -20 120 Z M75.22436523 123.66210938 C73.99987335 124.88676057 72.77815292 126.11418652 71.55859375 127.34375 C70.91632339 127.9874353 70.27405304 128.63112061 69.61231995 129.29431152 C67.55169988 131.36055079 65.49457475 133.43023169 63.4375 135.5 C62.04514988 136.89736264 60.65257475 138.29450111 59.25976562 139.69140625 C55.83722262 143.12500373 52.41781118 146.56169268 49 150 C50.80678792 153.90412388 53.32182775 156.56281927 56.375 159.53515625 C56.90013184 160.05508652 57.42526367 160.57501678 57.96630859 161.11070251 C59.63950892 162.76614218 61.31925435 164.41472431 63 166.0625 C64.67986104 167.7147001 66.35822399 169.36835341 68.03369141 171.02500916 C69.07487621 172.05398384 70.11872311 173.08027353 71.16552734 174.10353088 C73.40778751 176.31488945 75.24418331 178.36627497 77 181 C81.29067546 179.34763349 84.1429553 176.1094793 87.296875 172.8984375 C88.18732513 172.00374252 88.18732513 172.00374252 89.09576416 171.0909729 C90.98526627 169.1903019 92.86768392 167.28278526 94.75 165.375 C96.03209065 164.08287532 97.31463761 162.79120324 98.59765625 161.5 C101.73708432 158.33855521 104.87017801 155.1709539 108 152 C103.24846636 145.1722349 97.67067322 139.39427988 91.77563477 133.56982422 C90.16806125 131.98078537 88.56891187 130.38360859 86.97070312 128.78515625 C81.59662414 121.61946353 81.59662414 121.61946353 75.22436523 123.66210938 Z M-71.41699219 171.20581055 C-72.22378418 172.03786011 -72.22378418 172.03786011 -73.046875 172.88671875 C-73.645 173.49580078 -74.243125 174.10488281 -74.859375 174.73242188 C-75.48328125 175.37759766 -76.1071875 176.02277344 -76.75 176.6875 C-77.97143213 177.94386716 -79.19536333 179.19780994 -80.421875 180.44921875 C-81.01548828 181.06200684 -81.60910156 181.67479492 -82.22070312 182.30615234 C-83.89946866 183.9042966 -85.61291549 185.14438165 -87.515625 186.45703125 C-88.33546875 187.29621094 -89.1553125 188.13539063 -90 189 C-89.66428684 194.94744074 -88.22622817 200.56784952 -86.71484375 206.3125 C-86.3840255 207.59398926 -86.3840255 207.59398926 -86.04652405 208.90136719 C-85.3481806 211.60214605 -84.64296169 214.30107275 -83.9375 217 C-83.45982905 218.84232938 -82.98261104 220.68477626 -82.50585938 222.52734375 C-81.34247099 227.01960439 -80.17291736 231.51021837 -79 236 C-75.91325457 236.32346192 -75.91325457 236.32346192 -73.85864258 234.18334961 C-73.04548584 233.34811768 -72.2323291 232.51288574 -71.39453125 231.65234375 C-70.49283203 230.73646484 -69.59113281 229.82058594 -68.66210938 228.87695312 C-67.71178873 227.89757269 -66.76192148 226.91775212 -65.8125 225.9375 C-60.24500663 220.23754003 -54.71718838 214.60044112 -48.6550293 209.42358398 C-46.67768906 207.7227622 -44.82478237 205.92529867 -43 204.0625 C-42.13375 203.18271484 -42.13375 203.18271484 -41.25 202.28515625 C-40.8375 201.86105469 -40.425 201.43695313 -40 201 C-41.51258135 197.42919135 -43.60042107 195.18055973 -46.359375 192.48046875 C-47.22820312 191.62259766 -48.09703125 190.76472656 -48.9921875 189.88085938 C-50.35730469 188.54764648 -50.35730469 188.54764648 -51.75 187.1875 C-61.86425648 177.26999058 -61.86425648 177.26999058 -65.515625 172.86328125 C-66.33546875 171.91839844 -67.1553125 170.97351563 -68 170 C-70.05624174 169.78397503 -70.05624174 169.78397503 -71.41699219 171.20581055 Z M25.11083984 173.66210938 C23.88906356 174.88420363 22.6728082 176.11183237 21.4609375 177.34375 C20.82008209 177.9874353 20.17922668 178.63112061 19.51895142 179.29431152 C17.46624433 181.35824447 15.42058629 183.42901163 13.375 185.5 C11.98743678 186.8975899 10.59942172 188.29473135 9.2109375 189.69140625 C5.80202016 193.12241587 2.39941052 196.55957191 -1 200 C2.71015527 204.4266071 6.52148293 208.64214876 10.6171875 212.71484375 C11.11920685 213.21544815 11.6212262 213.71605255 12.13845825 214.23182678 C13.71493671 215.80278598 15.29488573 217.37019877 16.875 218.9375 C17.95596274 220.01343727 19.03669383 221.08960731 20.1171875 222.16601562 C22.74212641 224.78003292 25.37018628 227.39088596 28 230 C32.29067546 228.34763349 35.1429553 225.1094793 38.296875 221.8984375 C39.18732513 221.00374252 39.18732513 221.00374252 40.09576416 220.0909729 C41.98526627 218.1903019 43.86768392 216.28278526 45.75 214.375 C47.03209065 213.08287532 48.31463761 211.79120324 49.59765625 210.5 C52.73708432 207.33855521 55.87017801 204.1709539 59 201 C53.88821301 194.91458916 48.44892056 189.26274078 42.83056641 183.64526367 C41.23440256 182.04688087 39.64644686 180.44061854 38.05859375 178.83398438 C37.04475921 177.81722113 36.03045365 176.80092728 35.015625 175.78515625 C34.10071289 174.86613525 33.18580078 173.94711426 32.24316406 173.00024414 C28.80315711 169.93276733 28.54418137 170.49858428 25.11083984 173.66210938 Z M124.22436523 173.66210938 C122.99987335 174.88676057 121.77815292 176.11418652 120.55859375 177.34375 C119.91632339 177.9874353 119.27405304 178.63112061 118.61231995 179.29431152 C116.55169988 181.36055079 114.49457475 183.43023169 112.4375 185.5 C111.04514988 186.89736264 109.65257475 188.29450111 108.25976562 189.69140625 C104.83722262 193.12500373 101.41781118 196.56169268 98 200 C99.84765949 204.02754289 102.52748398 206.71324531 105.6875 209.75 C109.0191285 213.01102446 112.31195198 216.23854882 115.3125 219.8125 C117.70835088 222.57948096 120.17105961 225.23515095 122.7578125 227.82421875 C123.44190186 228.50959717 124.12599121 229.19497559 124.83081055 229.90112305 C127.88118834 232.94018874 130.93612797 235.97453717 134 239 C136.14431113 238.20404856 136.14431113 238.20404856 136.70953369 236.23625183 C136.92430359 235.46888199 137.13907349 234.70151215 137.36035156 233.91088867 C137.73018158 232.60899849 137.73018158 232.60899849 138.10748291 231.2808075 C138.3659198 230.33607071 138.62435669 229.39133392 138.890625 228.41796875 C139.29302399 226.96938225 139.29302399 226.96938225 139.70355225 225.49153137 C140.26913459 223.44399645 140.83039235 221.39526289 141.38769531 219.34545898 C142.24476875 216.20665804 143.12548183 213.07514034 144.0078125 209.94335938 C144.55354519 207.95613004 145.09786308 205.96851153 145.640625 203.98046875 C146.04042572 202.57247261 146.04042572 202.57247261 146.44830322 201.1360321 C146.68224792 200.25864883 146.91619263 199.38126556 147.15722656 198.47729492 C147.47460785 197.32265999 147.47460785 197.32265999 147.79840088 196.1446991 C148.05214529 193.44525575 147.43792617 192.26885352 146 190 C144.30608148 188.00831139 142.60042287 186.09005639 140.8125 184.1875 C140.32217285 183.65995117 139.8318457 183.13240234 139.32666016 182.58886719 C135.63685188 178.63610706 131.90831153 174.73838494 128 171 C126.47930139 170.88463442 126.47930139 170.88463442 124.22436523 173.66210938 Z M-32.66210938 230.54858398 C-33.89189321 231.77852263 -35.11903923 233.01110351 -36.34375 234.24609375 C-36.99831177 234.90207047 -37.65287354 235.55804718 -38.32727051 236.23390198 C-40.38723823 238.29940145 -42.44367366 240.36837595 -44.5 242.4375 C-45.9086205 243.85114434 -47.31747267 245.26455786 -48.7265625 246.67773438 C-52.15372133 250.11583149 -55.57772019 253.55704656 -59 257 C-56.2937563 258.80416246 -54.67432196 259.50605655 -51.62036133 260.32861328 C-50.29933159 260.68876022 -50.29933159 260.68876022 -48.95161438 261.05618286 C-48.00465195 261.30834564 -47.05768951 261.56050842 -46.08203125 261.8203125 C-45.10965012 262.08383514 -44.13726898 262.34735779 -43.13542175 262.61886597 C-40.0291508 263.45941514 -36.92088081 264.29229087 -33.8125 265.125 C-31.70624407 265.69350629 -29.6001225 266.26251061 -27.49414062 266.83203125 C-22.33097228 268.22713717 -17.16614188 269.61594841 -12 271 C-11.5059668 270.50072998 -11.01193359 270.00145996 -10.50292969 269.48706055 C-8.25460324 267.21789673 -6.00235079 264.95266905 -3.75 262.6875 C-2.97269531 261.90181641 -2.19539063 261.11613281 -1.39453125 260.30664062 C-0.64042969 259.54931641 0.11367187 258.79199219 0.890625 258.01171875 C1.58188477 257.31522217 2.27314453 256.61872559 2.98535156 255.90112305 C4.89804681 254.09620813 6.86430235 252.53058332 9 251 C7.34632885 246.72113402 4.13020426 243.8599365 0.93359375 240.703125 C0.33950211 240.10949158 -0.25458954 239.51585815 -0.86668396 238.90423584 C-2.11928717 237.65464684 -3.37431307 236.40748226 -4.6315918 235.16259766 C-6.56425072 233.24826588 -8.48871713 231.32598142 -10.41210938 229.40234375 C-11.62973606 228.1896298 -12.84781918 226.97737392 -14.06640625 225.765625 C-14.6455629 225.18758118 -15.22471954 224.60953735 -15.82142639 224.01397705 C-22.83311595 217.08605356 -26.64922232 224.6300977 -32.66210938 230.54858398 Z M74.11083984 223.66210938 C72.88906356 224.88420363 71.6728082 226.11183237 70.4609375 227.34375 C69.82008209 227.9874353 69.17922668 228.63112061 68.51895142 229.29431152 C66.46624433 231.35824447 64.42058629 233.42901163 62.375 235.5 C60.98743678 236.8975899 59.59942172 238.29473135 58.2109375 239.69140625 C54.80202016 243.12241587 51.39941052 246.55957191 48 250 C48.93234094 251.10047247 49.86655072 252.19936175 50.80151367 253.29760742 C51.58156013 254.21578499 51.58156013 254.21578499 52.37736511 255.1525116 C54.88751173 258.01049697 57.59042643 260.65822403 60.3125 263.3125 C65.86664713 268.73329426 65.86664713 268.73329426 67 271 C73.28056702 270.42854223 79.11323648 269.36906597 85.19140625 267.71484375 C86.43747902 267.3840255 86.43747902 267.3840255 87.70872498 267.04652405 C90.32831273 266.34957744 92.94539624 265.64371026 95.5625 264.9375 C97.35205474 264.45969131 99.14176704 263.98247228 100.93164062 263.50585938 C105.28960967 262.34404174 109.64535833 261.17422469 114 260 C114.31634027 257.00537528 114.31634027 257.00537528 112.55053711 255.22583008 C111.8828833 254.58025146 111.21522949 253.93467285 110.52734375 253.26953125 C109.79193359 252.54830078 109.05652344 251.82707031 108.29882812 251.08398438 C107.51958984 250.33439453 106.74035156 249.58480469 105.9375 248.8125 C100.95659992 243.97671612 96.13349786 239.11926726 91.61010742 233.8503418 C89.23740357 231.12362118 86.73472506 228.56503782 84.1875 226 C83.71119141 225.51144531 83.23488281 225.02289063 82.74414062 224.51953125 C81.53550255 223.30579344 80.27181105 222.14737183 79 221 C76.59036732 220.77412697 76.59036732 220.77412697 74.11083984 223.66210938 Z " fill="#171717" transform="translate(123,1)"/>
</svg>
